<svg xmlns="http://www.w3.org/2000/svg" viewBox="28 116 516 236" width="516" height="236" font-family="var(--ill-font-mono, &#39;JetBrains Mono&#39;, ui-monospace, &#39;SF Mono&#39;, Menlo, monospace)">
  <rect width="560" height="420" fill="var(--ill-bg, #060C17)"></rect>
  <g transform="translate(40,196)">
    <rect x="0" y="0" width="120" height="46" rx="8" fill="var(--ill-accent, #7BE0B5)"></rect>
    <text x="16" y="29" fill="var(--ill-on-accent, #04140C)" font-size="13" font-weight="600" data-i18n="doc.query">&gt;_ tailwind ?</text>
  </g>
  <path d="M160 219 C198 219 208 158 248 158" fill="none" stroke="var(--ill-line, #243352)" stroke-width="2" stroke-dasharray="4 6"></path>
  <path d="M160 219 C198 219 208 292 248 292" fill="none" stroke="var(--ill-accent, #7BE0B5)" stroke-width="2.5"></path>
  <g transform="translate(250,128)">
    <rect x="0" y="0" width="280" height="60" rx="8" fill="none" stroke="var(--ill-line, #243352)" stroke-width="1.5" stroke-dasharray="5 5"></rect>
    <text x="16" y="25" fill="var(--ill-muted, #7A8BA0)" font-size="11" data-i18n="doc.stale">mémoire du modèle · périmée</text>
    <text x="16" y="46" fill="var(--ill-muted, #7A8BA0)" font-size="13">Tailwind v3 · config.js</text>
    <g transform="translate(252,30)" stroke="var(--ill-muted, #7A8BA0)" stroke-width="2.5" stroke-linecap="round">
      <line x1="-7" y1="-7" x2="7" y2="7"></line><line x1="7" y1="-7" x2="-7" y2="7"></line>
    </g>
  </g>
  <g transform="translate(250,248)">
    <rect x="0" y="0" width="280" height="88" rx="8" fill="var(--ill-surface-2, #16263F)" stroke="var(--ill-accent, #7BE0B5)" stroke-width="2"></rect>
    <g>
      <rect x="16" y="22" width="9" height="9" rx="2" fill="var(--ill-line, #243352)"></rect><rect x="28" y="22" width="9" height="9" rx="2" fill="var(--ill-line, #243352)"></rect><rect x="40" y="22" width="9" height="9" rx="2" fill="var(--ill-accent, #7BE0B5)"></rect>
      <rect x="16" y="34" width="9" height="9" rx="2" fill="var(--ill-line, #243352)"></rect><rect x="28" y="34" width="9" height="9" rx="2" fill="var(--ill-line, #243352)"></rect><rect x="40" y="34" width="9" height="9" rx="2" fill="var(--ill-line, #243352)"></rect>
    </g>
    <text x="66" y="32" fill="var(--ill-accent, #7BE0B5)" font-size="11" data-i18n="doc.fresh">Qdrant — ma doc (via MCP)</text>
    <text x="66" y="54" fill="var(--ill-ink, #E2E8F0)" font-size="13">Tailwind v4 · @theme</text>
    <text x="20" y="76" fill="var(--ill-muted, #7A8BA0)" font-size="11" data-i18n="doc.fresh.note">consultée d&#39;office avant de répondre</text>
    <path d="M248 38 l7 7 l13 -15" fill="none" stroke="var(--ill-ok, #4ADE80)" stroke-width="3" stroke-linecap="round" stroke-linejoin="round"></path>
  </g>
</svg>