<svg xmlns="http://www.w3.org/2000/svg" viewBox="60 132 380 270" width="380" height="270" font-family="var(--ill-font-mono, &#39;JetBrains Mono&#39;, ui-monospace, &#39;SF Mono&#39;, Menlo, monospace)">
  <rect width="560" height="420" fill="var(--ill-bg, #060C17)"></rect>
  <g stroke="var(--ill-line, #243352)" stroke-width="2" fill="none">
    <path d="M90 160 H470"></path>
    <path d="M180 160 V210 M280 160 V210 M380 160 V210"></path>
    <path d="M180 250 V300 M280 250 V300 M380 250 V300"></path>
    <path d="M180 300 H380"></path>
    <path d="M280 300 V340"></path>
  </g>
  <g transform="translate(90,160)">
    <circle r="14" fill="var(--ill-surface-2, #16263F)" stroke="var(--ill-accent, #7BE0B5)" stroke-width="2"></circle>
    <text x="0" y="4" fill="var(--ill-accent, #7BE0B5)" font-size="13" text-anchor="middle">&gt;</text>
  </g>
  <g font-size="11" text-anchor="middle">
    <g transform="translate(180,230)"><rect x="-44" y="-20" width="88" height="40" rx="6" fill="var(--ill-surface, #111B2E)" stroke="var(--ill-accent-2, #5BB8D4)" stroke-width="2"></rect><text y="-2" fill="var(--ill-ink, #E2E8F0)" data-i18n="skills.format">format</text><text y="13" fill="var(--ill-muted, #7A8BA0)" data-i18n="skills.format.sub">auto-fix</text></g>
    <g transform="translate(280,230)"><rect x="-44" y="-20" width="88" height="40" rx="6" fill="var(--ill-surface, #111B2E)" stroke="var(--ill-accent-2, #5BB8D4)" stroke-width="2"></rect><text y="-2" fill="var(--ill-ink, #E2E8F0)" data-i18n="skills.audits">audits</text><text y="13" fill="var(--ill-muted, #7A8BA0)" data-i18n="skills.audits.sub">parallèle</text></g>
    <g transform="translate(380,230)"><rect x="-44" y="-20" width="88" height="40" rx="6" fill="var(--ill-surface, #111B2E)" stroke="var(--ill-accent-2, #5BB8D4)" stroke-width="2"></rect><text y="-2" fill="var(--ill-ink, #E2E8F0)" data-i18n="skills.build">build</text><text y="13" fill="var(--ill-muted, #7A8BA0)" data-i18n="skills.build.sub">+ tests</text></g>
  </g>
  <g transform="translate(280,340)">
    <rect x="-115" y="0" width="230" height="44" rx="8" fill="var(--ill-accent, #7BE0B5)"></rect>
    <path d="M-92 22 l8 8 l14 -16" fill="none" stroke="var(--ill-on-accent, #04140C)" stroke-width="3" stroke-linecap="round"></path>
    <text x="20" y="27" fill="var(--ill-on-accent, #04140C)" font-size="13" font-weight="600" text-anchor="middle" data-i18n="skills.gate">PR si tout passe</text>
  </g>
</svg>