<svg xmlns="http://www.w3.org/2000/svg" viewBox="30 126 336 238" width="336" height="238" font-family="var(--ill-font-mono, &#39;JetBrains Mono&#39;, ui-monospace, &#39;SF Mono&#39;, Menlo, monospace)">
  <rect width="560" height="420" fill="var(--ill-bg, #060C17)"></rect>
  <g font-size="11" fill="var(--ill-muted, #7A8BA0)">
    <text x="44" y="186" data-i18n="guards.commit">commit signé IA</text>
    <text x="44" y="300" data-i18n="guards.push">push sur main</text>
  </g>
  <path d="M60 200 H250 q44 -10 70 -40" fill="none" stroke="var(--ill-line, #243352)" stroke-width="2" stroke-dasharray="4 7" stroke-linecap="round"></path>
  <path d="M60 286 H250 q44 10 70 40" fill="none" stroke="var(--ill-line, #243352)" stroke-width="2" stroke-dasharray="4 7" stroke-linecap="round"></path>
  <g transform="translate(268,140)">
    <rect x="0" y="0" width="56" height="208" rx="4" fill="var(--ill-surface-2, #16263F)" stroke="var(--ill-accent, #7BE0B5)" stroke-width="2.5"></rect>
    <g stroke="var(--ill-line, #243352)" stroke-width="1.5">
      <line x1="0" y1="42" x2="56" y2="42"></line><line x1="0" y1="84" x2="56" y2="84"></line><line x1="0" y1="124" x2="56" y2="124"></line><line x1="0" y1="166" x2="56" y2="166"></line>
      <line x1="28" y1="0" x2="28" y2="42"></line><line x1="28" y1="84" x2="28" y2="124"></line><line x1="28" y1="166" x2="28" y2="208"></line>
    </g>
    <g transform="translate(28,104)">
      <rect x="-14" y="-2" width="28" height="22" rx="3" fill="var(--ill-accent, #7BE0B5)" stroke="none"></rect>
      <path d="M-8 -2 v-6 a8 8 0 0 1 16 0 v6" fill="none" stroke="var(--ill-accent, #7BE0B5)" stroke-width="2"></path>
      <circle cx="0" cy="9" r="2.5" fill="var(--ill-on-accent, #04140C)"></circle>
    </g>
  </g>
  <g stroke="var(--ill-accent-2, #5BB8D4)" stroke-width="3" stroke-linecap="round">
    <line x1="334" y1="152" x2="350" y2="168"></line><line x1="350" y1="152" x2="334" y2="168"></line>
    <line x1="334" y1="312" x2="350" y2="328"></line><line x1="350" y1="312" x2="334" y2="328"></line>
  </g>
</svg>