<svg xmlns="http://www.w3.org/2000/svg" viewBox="100 152 1000 174" width="1000" height="174" font-family="var(--ill-font-mono, &#39;JetBrains Mono&#39;, ui-monospace, &#39;SF Mono&#39;, Menlo, monospace)">
  <rect width="1200" height="460" fill="var(--ill-bg, #060C17)"></rect>
  <path d="M160 220 H1040" fill="none" stroke="var(--ill-line, #243352)" stroke-width="2"></path>
  <path d="M160 220 H1040" fill="none" stroke="var(--ill-accent, #7BE0B5)" stroke-width="2" stroke-dasharray="2 12" stroke-linecap="round"></path>
  <g fill="var(--ill-accent, #7BE0B5)">
    <circle cx="270" cy="220" r="2.5"></circle><circle cx="490" cy="220" r="2.5"></circle><circle cx="710" cy="220" r="2.5"></circle><circle cx="930" cy="220" r="2.5"></circle>
  </g>
  <g stroke="var(--ill-accent, #7BE0B5)" stroke-width="2" fill="var(--ill-bg, #060C17)">
    <circle cx="160" cy="220" r="46"></circle><circle cx="380" cy="220" r="46"></circle><circle cx="600" cy="220" r="46"></circle><circle cx="820" cy="220" r="46"></circle><circle cx="1040" cy="220" r="46"></circle>
  </g>
  <g transform="translate(160,220)" stroke="var(--ill-accent, #7BE0B5)" stroke-width="2" fill="none">
    <rect x="-18" y="-2" width="36" height="14" rx="2"></rect>
    <rect x="-14" y="-12" width="28" height="14" rx="2"></rect>
    <rect x="-10" y="-22" width="20" height="14" rx="2" stroke="var(--ill-muted, #7A8BA0)"></rect>
  </g>
  <g transform="translate(380,220)" fill="var(--ill-muted, #7A8BA0)">
    <rect x="-18" y="-18" width="10" height="10" rx="1.5"></rect><rect x="-5" y="-18" width="10" height="10" rx="1.5"></rect><rect x="8" y="-18" width="10" height="10" rx="1.5"></rect>
    <rect x="-18" y="-5" width="10" height="10" rx="1.5"></rect><rect x="-5" y="-5" width="10" height="10" rx="1.5" fill="var(--ill-accent, #7BE0B5)"></rect><rect x="8" y="-5" width="10" height="10" rx="1.5"></rect>
    <rect x="-18" y="8" width="10" height="10" rx="1.5"></rect><rect x="-5" y="8" width="10" height="10" rx="1.5"></rect><rect x="8" y="8" width="10" height="10" rx="1.5"></rect>
  </g>
  <g transform="translate(600,220)" stroke="var(--ill-accent, #7BE0B5)" stroke-width="2" fill="none" stroke-linecap="round">
    <path d="M-20 -14 l5 5 l9 -11"></path><line x1="0" y1="-11" x2="20" y2="-11" stroke="var(--ill-muted, #7A8BA0)"></line>
    <path d="M-20 2 l5 5 l9 -11"></path><line x1="0" y1="3" x2="20" y2="3" stroke="var(--ill-muted, #7A8BA0)"></line>
    <path d="M-20 18 l5 5 l9 -11"></path><line x1="0" y1="19" x2="20" y2="19" stroke="var(--ill-muted, #7A8BA0)"></line>
  </g>
  <g transform="translate(820,220)" stroke="var(--ill-accent, #7BE0B5)" stroke-width="2">
    <line x1="0" y1="0" x2="0" y2="-22"></line><line x1="0" y1="0" x2="20" y2="-10"></line><line x1="0" y1="0" x2="20" y2="10"></line><line x1="0" y1="0" x2="0" y2="22"></line><line x1="0" y1="0" x2="-20" y2="10"></line><line x1="0" y1="0" x2="-20" y2="-10"></line>
    <circle cx="0" cy="-22" r="3.5" fill="var(--ill-bg, #060C17)"></circle><circle cx="20" cy="-10" r="3.5" fill="var(--ill-bg, #060C17)"></circle><circle cx="20" cy="10" r="3.5" fill="var(--ill-bg, #060C17)"></circle><circle cx="0" cy="22" r="3.5" fill="var(--ill-bg, #060C17)"></circle><circle cx="-20" cy="10" r="3.5" fill="var(--ill-bg, #060C17)"></circle><circle cx="-20" cy="-10" r="3.5" fill="var(--ill-bg, #060C17)"></circle>
    <circle cx="0" cy="0" r="6" fill="var(--ill-accent, #7BE0B5)" stroke="none"></circle>
  </g>
  <g transform="translate(1040,220)" stroke="var(--ill-accent, #7BE0B5)" stroke-width="2" fill="none">
    <rect x="-16" y="-6" width="32" height="26" rx="3"></rect>
    <path d="M-9 -6 v-7 a9 9 0 0 1 18 0 v7"></path>
    <circle cx="0" cy="5" r="3" fill="var(--ill-accent, #7BE0B5)" stroke="none"></circle><line x1="0" y1="7" x2="0" y2="13"></line>
  </g>
  <g fill="var(--ill-muted, #7A8BA0)" font-size="13" text-anchor="middle" letter-spacing="1">
    <text x="160" y="300" data-i18n="nav.context">contexte</text>
    <text x="380" y="300" data-i18n="nav.docs">doc indexée</text>
    <text x="600" y="300" data-i18n="nav.skills">skills</text>
    <text x="820" y="300" data-i18n="nav.agents">agents</text>
    <text x="1040" y="300" data-i18n="nav.guards">garde-fous</text>
  </g>
</svg>